<svg width="40" height="40" viewBox="0 0 40 40" fill="none" xmlns="http://www.w3.org/2000/svg">
<path d="M11 19C11 15.229 11 13.343 12.172 12.172C13.343 11 15.229 11 19 11H21C24.771 11 26.657 11 27.828 12.172C29 13.343 29 15.229 29 19V21C29 24.771 29 26.657 27.828 27.828C26.657 29 24.771 29 21 29H19C15.229 29 13.343 29 12.172 27.828C11 26.657 11 24.771 11 21V19Z" stroke="black" stroke-width="0.5"/>
<path d="M24 16C24.5523 16 25 15.5523 25 15C25 14.4477 24.5523 14 24 14C23.4477 14 23 14.4477 23 15C23 15.5523 23.4477 16 24 16Z" fill="black"/>
<path d="M20 23.5C21.933 23.5 23.5 21.933 23.5 20C23.5 18.067 21.933 16.5 20 16.5C18.067 16.5 16.5 18.067 16.5 20C16.5 21.933 18.067 23.5 20 23.5Z" stroke="black" stroke-width="0.5"/>
<circle cx="20" cy="20" r="19" stroke="black" stroke-opacity="0.3" stroke-width="2"/>
</svg>
