<svg width="40" height="40" viewBox="0 0 40 40" fill="none" xmlns="http://www.w3.org/2000/svg">
<circle cx="20" cy="20" r="19" stroke="black" stroke-opacity="0.3" stroke-width="2"/>
<path d="M28.4148 12.2402C28.9848 12.2402 29.4148 12.7402 29.1848 13.6702L26.3948 26.8202C26.1998 27.7552 25.6348 27.9802 24.8548 27.5452L18.1998 22.6302C18.174 22.6117 18.153 22.5873 18.1385 22.5591C18.124 22.5308 18.1164 22.4995 18.1164 22.4677C18.1164 22.436 18.124 22.4047 18.1385 22.3764C18.153 22.3481 18.174 22.3238 18.1998 22.3052L25.8848 15.3652C26.2348 15.0552 25.8098 14.9052 25.3498 15.1852L15.7048 21.2702C15.6755 21.2893 15.6423 21.3015 15.6077 21.3058C15.573 21.3101 15.5378 21.3065 15.5048 21.2952L11.4098 20.0002C10.4998 19.7352 10.4998 19.1102 11.6148 18.6652L27.9998 12.3452C28.1299 12.2834 28.2709 12.2477 28.4148 12.2402Z" stroke="black" stroke-width="0.5" stroke-linecap="round" stroke-linejoin="round"/>
</svg>
