<svg width="40" height="40" viewBox="0 0 40 40" fill="none" xmlns="http://www.w3.org/2000/svg">
<path d="M29 16V24C29 25.3261 28.4732 26.5979 27.5355 27.5355C26.5979 28.4732 25.3261 29 24 29H16C14.6739 29 13.4021 28.4732 12.4645 27.5355C11.5268 26.5979 11 25.3261 11 24V16C11 14.6739 11.5268 13.4021 12.4645 12.4645C13.4021 11.5268 14.6739 11 16 11H24C25.3261 11 26.5979 11.5268 27.5355 12.4645C28.4732 13.4021 29 14.6739 29 16Z" stroke="black" stroke-width="0.5" stroke-linecap="round" stroke-linejoin="round"/>
<path d="M18 20C17.4067 20 16.8266 20.1759 16.3333 20.5056C15.8399 20.8352 15.4554 21.3038 15.2284 21.8519C15.0013 22.4001 14.9419 23.0033 15.0576 23.5853C15.1734 24.1672 15.4591 24.7018 15.8787 25.1213C16.2982 25.5409 16.8328 25.8266 17.4147 25.9424C17.9967 26.0581 18.5999 25.9987 19.1481 25.7716C19.6962 25.5446 20.1648 25.1601 20.4944 24.6667C20.8241 24.1734 21 23.5933 21 23V14C21.333 15 22.6 17 25 17" stroke="black" stroke-width="0.5" stroke-linecap="round" stroke-linejoin="round"/>
<circle cx="20" cy="20" r="19" stroke="black" stroke-opacity="0.3" stroke-width="2"/>
</svg>
