<svg width="20" height="20" viewBox="0 0 20 20" fill="none" xmlns="http://www.w3.org/2000/svg">
<path d="M19 6V14C19 15.3261 18.4732 16.5979 17.5355 17.5355C16.5979 18.4732 15.3261 19 14 19H6C4.67392 19 3.40215 18.4732 2.46447 17.5355C1.52678 16.5979 1 15.3261 1 14V6C1 4.67392 1.52678 3.40215 2.46447 2.46447C3.40215 1.52678 4.67392 1 6 1H14C15.3261 1 16.5979 1.52678 17.5355 2.46447C18.4732 3.40215 19 4.67392 19 6Z" stroke="black" stroke-width="0.5" stroke-linecap="round" stroke-linejoin="round"/>
<path d="M8 10C7.40666 10 6.82664 10.1759 6.33329 10.5056C5.83994 10.8352 5.45543 11.3038 5.22836 11.8519C5.0013 12.4001 4.94189 13.0033 5.05765 13.5853C5.1734 14.1672 5.45912 14.7018 5.87868 15.1213C6.29824 15.5409 6.83279 15.8266 7.41473 15.9424C7.99667 16.0581 8.59987 15.9987 9.14805 15.7716C9.69623 15.5446 10.1648 15.1601 10.4944 14.6667C10.8241 14.1734 11 13.5933 11 13V4C11.333 5 12.6 7 15 7" stroke="black" stroke-width="0.5" stroke-linecap="round" stroke-linejoin="round"/>
</svg>
