<svg width="16" height="16" viewBox="0 0 16 16" fill="none" xmlns="http://www.w3.org/2000/svg">
<path d="M13.458 2.46094L13.458 2.46095L13.4598 2.46264C14.1915 3.18238 14.774 4.03947 15.1739 4.98477C15.5736 5.92962 15.7829 6.94402 15.79 7.96989C15.7716 10.0261 14.9419 11.992 13.4814 13.4397C12.0208 14.8875 10.0474 15.6999 7.99081 15.7001C6.69735 15.6905 5.42713 15.3553 4.2974 14.7254L4.22715 14.6862L4.14933 14.7066L0.283894 15.719L1.31296 11.9426L1.33479 11.8626L1.29349 11.7906C0.618857 10.6142 0.265138 9.28117 0.267762 7.92507C0.270387 6.56896 0.629262 5.23735 1.30845 4.06358C1.98763 2.88981 2.96329 1.91509 4.13771 1.23703C5.31213 0.558972 6.64409 0.201375 8.0002 0.200052L8.00072 0.20005C9.01482 0.196375 10.0195 0.394364 10.9564 0.782502C11.8933 1.17064 12.7437 1.74118 13.458 2.46094ZM7.99996 14.7301H7.99999C9.80872 14.7301 11.5443 14.0159 12.829 12.7427C14.1138 11.4695 14.8437 9.74051 14.86 7.93185L14.86 7.93185L14.86 7.92721C14.8342 6.11803 14.0938 4.39252 12.8002 3.12743C11.6164 1.95766 10.0447 1.26264 8.38278 1.17402C6.72069 1.08539 5.08382 1.60943 3.78224 2.64688C2.48067 3.68433 1.6048 5.16313 1.32056 6.80313C1.03632 8.44313 1.36345 10.1304 2.23998 11.5454L2.23996 11.5454L2.24155 11.5479L2.35375 11.7232L1.71699 14.0676L1.62612 14.4022L1.96124 14.3134L4.36748 13.6756L4.534 13.7797L4.53397 13.7797L4.53815 13.7822C5.58637 14.4025 6.78196 14.7298 7.99996 14.7301ZM9.97155 9.16795L9.97179 9.16812L9.97769 9.15905C9.9999 9.12488 10.0158 9.11147 10.0229 9.10662C10.0282 9.10299 10.0313 9.10206 10.0365 9.10153C10.0443 9.10073 10.0597 9.101 10.0883 9.1074C10.1176 9.11396 10.1511 9.12458 10.1968 9.13979C10.2712 9.1646 10.5432 9.29162 10.8406 9.43516C11.1295 9.57467 11.4212 9.71925 11.5206 9.76894C11.5643 9.79079 11.6016 9.80887 11.6348 9.82495C11.6852 9.84935 11.7261 9.86916 11.7655 9.89063C11.7985 9.90862 11.8232 9.92421 11.8428 9.93895C11.8753 10.1934 11.8373 10.4524 11.7324 10.6873C11.604 10.9004 11.4328 11.0846 11.2296 11.2282C11.0256 11.3724 10.7938 11.4726 10.549 11.5223C9.76808 11.6101 8.9796 11.4436 8.30083 11.0473L8.30102 11.047L8.2901 11.0415C6.9512 10.3659 5.80966 9.35571 4.97628 8.10891L4.97175 8.10214L4.9667 8.09577C4.52526 7.53921 4.25836 6.8645 4.19957 6.15661C4.18505 5.87356 4.23086 5.59063 4.33397 5.3266C4.43744 5.06167 4.59622 4.82185 4.79972 4.62315L4.80682 4.61622L4.8132 4.60861C4.85965 4.55326 4.91755 4.50864 4.9829 4.47781C5.04802 4.44709 5.119 4.4308 5.19099 4.43005H5.57317C5.59444 4.43137 5.61445 4.43147 5.62919 4.43153L5.63187 4.43155C5.64912 4.43162 5.6607 4.43167 5.67219 4.43228C5.69395 4.43342 5.70354 4.43621 5.71032 4.43932C5.71982 4.44368 5.77334 4.47136 5.84497 4.64596C5.8985 4.77645 5.98435 4.9728 6.07421 5.17829C6.12017 5.2834 6.16718 5.39091 6.21144 5.49322C6.2776 5.64612 6.33787 5.78794 6.38142 5.89712C6.40329 5.95195 6.42002 5.99624 6.43099 6.02852C6.43524 6.04104 6.43814 6.05034 6.44 6.05681V6.08885L6.46247 6.13216C6.47576 6.15777 6.48269 6.1862 6.48269 6.21505C6.48269 6.24391 6.47576 6.27234 6.46247 6.29795L6.46246 6.29794L6.46159 6.29966C6.30804 6.60272 6.15322 6.76467 6.03145 6.89204C6.01449 6.90978 5.99817 6.92685 5.98258 6.94354C5.92366 7.00663 5.84366 7.09484 5.81463 7.21037C5.78172 7.3413 5.82197 7.46121 5.88692 7.57031C6.50494 8.67111 7.48088 9.52711 8.65232 9.99643C8.75679 10.0714 8.87437 10.1311 9.00239 10.1288C9.15139 10.1261 9.25784 10.0424 9.33223 9.94995C9.55949 9.70119 9.77293 9.44013 9.97155 9.16795ZM6.44243 6.06631C6.4424 6.06627 6.44223 6.06553 6.44198 6.06421L6.44243 6.06631Z" fill="black" stroke="white" stroke-width="0.4"/>
</svg>
