<svg width="20" height="16" viewBox="0 0 20 16" fill="none" xmlns="http://www.w3.org/2000/svg">
<path d="M3.367 13.508L3.33899 13.706C3.33896 13.706 3.33893 13.706 3.33889 13.706C2.99084 13.6568 2.66717 13.499 2.41391 13.2553C2.16069 13.0115 1.99074 12.6942 1.92823 12.3483C1.74494 11.3484 1.55 9.87159 1.55 8C1.55 6.12599 1.74497 4.65129 1.92828 3.65143C1.99083 3.30568 2.16075 2.98842 2.41391 2.74474C2.6671 2.50103 2.99067 2.34332 3.33862 2.29402C4.81532 2.07942 7.2628 1.8 10 1.8C12.7375 1.8 15.1821 2.07947 16.6617 2.29407C17.0094 2.34385 17.3326 2.50168 17.5856 2.74524C17.8387 2.98885 18.0087 3.30586 18.0717 3.65143M3.367 13.508C4.84375 13.7218 7.2925 14 10 14C12.7067 14 15.1525 13.7218 16.633 13.508M3.367 13.508C3.06056 13.4647 2.77558 13.3258 2.55261 13.1112C2.32963 12.8965 2.18 12.6171 2.125 12.3125L3.367 13.508ZM16.633 13.508L16.6606 13.7061C16.6608 13.7061 16.661 13.706 16.6612 13.706C17.0094 13.6573 17.3334 13.4997 17.5867 13.2559C17.84 13.0121 18.0097 12.6946 18.0717 12.3486C18.255 11.3487 18.45 9.86573 18.45 8C18.45 6.13126 18.255 4.65131 18.0717 3.65143M16.633 13.508C16.9397 13.4652 17.2249 13.3265 17.448 13.1118C17.6711 12.8971 17.8205 12.6173 17.875 12.3125L16.633 13.508ZM18.0717 3.65143C18.0717 3.65151 18.0718 3.65159 18.0718 3.65167L17.875 3.6875L18.0717 3.65143ZM3.18523 1.21389L3.18528 1.21388C4.70282 0.991219 7.18849 0.7 10 0.7C12.8106 0.7 15.2969 0.991928 16.8147 1.21312C17.9928 1.38634 18.9394 2.27249 19.1551 3.44251L19.1551 3.44269C19.3519 4.50455 19.55 6.0598 19.55 8C19.55 9.93991 19.3489 11.4953 19.155 12.5578C18.9391 13.728 17.9924 14.6165 16.8152 14.786L16.8148 14.7861C15.2912 15.0088 12.7965 15.3 10 15.3C7.20354 15.3 4.70959 15.008 3.18497 14.7868L3.18488 14.7868C2.00747 14.6165 1.06074 13.7279 0.844943 12.5575C0.651048 11.4989 0.45 9.94583 0.45 8C0.45 6.05413 0.651055 4.50183 0.84496 3.44238C1.06073 2.2724 2.00723 1.38638 3.18523 1.21389ZM10 15.5C12.8095 15.5 15.3145 15.2075 16.8438 14.984L0.64825 12.5938C0.88 13.8507 1.89625 14.8025 3.15625 14.9847C4.68625 15.2067 7.1905 15.5 10 15.5ZM9.34966 6.11585L9.05 5.94363V6.28925V9.71075V10.0564L9.34966 9.88415L12.3264 8.1734L12.6281 8L12.3264 7.8266L9.34966 6.11585ZM7.95 11.948V4.05277L8.77577 4.5174L8.77693 4.51805L14.0242 7.51651L14.0258 7.5174L14.8532 8.0001L14.0258 8.48335L14.0241 8.48429L8.77693 11.4827L8.77577 11.4834L7.95 11.948Z" fill="black" stroke="white" stroke-width="0.4"/>
</svg>
