<svg width="20" height="16" viewBox="0 0 20 16" fill="none" xmlns="http://www.w3.org/2000/svg">
<path d="M18.4148 0.240234C18.9848 0.240234 19.4148 0.740235 19.1848 1.67023L16.3948 14.8202C16.1998 15.7552 15.6348 15.9802 14.8548 15.5452L8.1998 10.6302C8.17399 10.6117 8.15297 10.5873 8.13846 10.5591C8.12396 10.5308 8.11639 10.4995 8.11639 10.4677C8.11639 10.436 8.12396 10.4047 8.13846 10.3764C8.15297 10.3481 8.17399 10.3238 8.1998 10.3052L15.8848 3.36523C16.2348 3.05523 15.8098 2.90523 15.3498 3.18523L5.7048 9.27024C5.67555 9.28931 5.64234 9.30148 5.60769 9.30581C5.57303 9.31014 5.53785 9.30652 5.5048 9.29523L1.4098 8.00023C0.499801 7.73523 0.4998 7.11023 1.6148 6.66523L17.9998 0.345234C18.1299 0.283395 18.2709 0.24772 18.4148 0.240234Z" stroke="black" stroke-width="0.5" stroke-linecap="round" stroke-linejoin="round"/>
</svg>
