<svg width="40" height="40" viewBox="0 0 40 40" fill="none" xmlns="http://www.w3.org/2000/svg">
<path d="M25.458 14.4609L25.458 14.461L25.4598 14.4626C26.1915 15.1824 26.774 16.0395 27.1739 16.9848C27.5736 17.9296 27.7829 18.944 27.79 19.9699C27.7716 22.0261 26.9419 23.992 25.4814 25.4397C24.0208 26.8875 22.0474 27.6999 19.9908 27.7001C18.6974 27.6905 17.4271 27.3553 16.2974 26.7254L16.2271 26.6862L16.1493 26.7066L12.2839 27.719L13.313 23.9426L13.3348 23.8626L13.2935 23.7906C12.6189 22.6142 12.2651 21.2812 12.2678 19.9251C12.2704 18.569 12.6293 17.2373 13.3084 16.0636C13.9876 14.8898 14.9633 13.9151 16.1377 13.237C17.3121 12.559 18.6441 12.2014 20.0002 12.2001L20.0007 12.2001C21.0148 12.1964 22.0195 12.3944 22.9564 12.7825C23.8933 13.1706 24.7437 13.7412 25.458 14.4609ZM20 26.7301H20C21.8087 26.7301 23.5443 26.0159 24.829 24.7427C26.1138 23.4695 26.8437 21.7405 26.86 19.9319L26.86 19.9319L26.86 19.9272C26.8342 18.118 26.0938 16.3925 24.8002 15.1274C23.6164 13.9577 22.0447 13.2626 20.3828 13.174C18.7207 13.0854 17.0838 13.6094 15.7822 14.6469C14.4807 15.6843 13.6048 17.1631 13.3206 18.8031C13.0363 20.4431 13.3634 22.1304 14.24 23.5454L14.24 23.5454L14.2415 23.5479L14.3538 23.7232L13.717 26.0676L13.6261 26.4022L13.9612 26.3134L16.3675 25.6756L16.534 25.7797L16.534 25.7797L16.5381 25.7822C17.5864 26.4025 18.782 26.7298 20 26.7301ZM21.9716 21.168L21.9718 21.1681L21.9777 21.159C21.9999 21.1249 22.0158 21.1115 22.0229 21.1066C22.0282 21.103 22.0313 21.1021 22.0365 21.1015C22.0443 21.1007 22.0597 21.101 22.0883 21.1074C22.1176 21.114 22.1511 21.1246 22.1968 21.1398C22.2712 21.1646 22.5432 21.2916 22.8406 21.4352C23.1295 21.5747 23.4212 21.7193 23.5206 21.7689C23.5643 21.7908 23.6016 21.8089 23.6348 21.825C23.6852 21.8494 23.7261 21.8692 23.7655 21.8906C23.7985 21.9086 23.8232 21.9242 23.8428 21.9389C23.8753 22.1934 23.8373 22.4524 23.7324 22.6873C23.604 22.9004 23.4328 23.0846 23.2296 23.2282C23.0256 23.3724 22.7938 23.4726 22.549 23.5223C21.7681 23.6101 20.9796 23.4436 20.3008 23.0473L20.301 23.047L20.2901 23.0415C18.9512 22.3659 17.8097 21.3557 16.9763 20.1089L16.9718 20.1021L16.9667 20.0958C16.5253 19.5392 16.2584 18.8645 16.1996 18.1566C16.1851 17.8736 16.2309 17.5906 16.334 17.3266C16.4374 17.0617 16.5962 16.8219 16.7997 16.6232L16.8068 16.6162L16.8132 16.6086C16.8597 16.5533 16.9175 16.5086 16.9829 16.4778C17.048 16.4471 17.119 16.4308 17.191 16.4301H17.5732C17.5944 16.4314 17.6145 16.4315 17.6292 16.4315L17.6319 16.4315C17.6491 16.4316 17.6607 16.4317 17.6722 16.4323C17.6939 16.4334 17.7035 16.4362 17.7103 16.4393C17.7198 16.4437 17.7733 16.4714 17.845 16.646C17.8985 16.7764 17.9844 16.9728 18.0742 17.1783C18.1202 17.2834 18.1672 17.3909 18.2114 17.4932C18.2776 17.6461 18.3379 17.7879 18.3814 17.8971C18.4033 17.952 18.42 17.9962 18.431 18.0285C18.4352 18.041 18.4381 18.0503 18.44 18.0568V18.0888L18.4625 18.1322C18.4758 18.1578 18.4827 18.1862 18.4827 18.2151C18.4827 18.2439 18.4758 18.2723 18.4625 18.2979L18.4625 18.2979L18.4616 18.2997C18.308 18.6027 18.1532 18.7647 18.0314 18.892C18.0145 18.9098 17.9982 18.9269 17.9826 18.9435C17.9237 19.0066 17.8437 19.0948 17.8146 19.2104C17.7817 19.3413 17.822 19.4612 17.8869 19.5703C18.5049 20.6711 19.4809 21.5271 20.6523 21.9964C20.7568 22.0714 20.8744 22.1311 21.0024 22.1288C21.1514 22.1261 21.2578 22.0424 21.3322 21.95C21.5595 21.7012 21.7729 21.4401 21.9716 21.168ZM18.4424 18.0663C18.4424 18.0663 18.4422 18.0655 18.442 18.0642L18.4424 18.0663Z" fill="black" stroke="white" stroke-width="0.4"/>
<circle cx="20" cy="20" r="19" stroke="black" stroke-opacity="0.3" stroke-width="2"/>
</svg>
