<svg width="40" height="40" viewBox="0 0 40 40" fill="none" xmlns="http://www.w3.org/2000/svg">
<circle cx="20" cy="20" r="19" stroke="black" stroke-opacity="0.3" stroke-width="2"/>
<path d="M13.367 25.508L13.339 25.706C13.339 25.706 13.3389 25.706 13.3389 25.706C12.9908 25.6568 12.6672 25.499 12.4139 25.2553C12.1607 25.0115 11.9907 24.6942 11.9282 24.3483C11.7449 23.3484 11.55 21.8716 11.55 20C11.55 18.126 11.745 16.6513 11.9283 15.6514C11.9908 15.3057 12.1608 14.9884 12.4139 14.7447C12.6671 14.501 12.9907 14.3433 13.3386 14.294C14.8153 14.0794 17.2628 13.8 20 13.8C22.7375 13.8 25.1821 14.0795 26.6617 14.2941C27.0094 14.3439 27.3326 14.5017 27.5856 14.7452C27.8387 14.9888 28.0087 15.3059 28.0717 15.6514M13.367 25.508C14.8438 25.7218 17.2925 26 20 26C22.7067 26 25.1525 25.7218 26.633 25.508M13.367 25.508C13.0606 25.4647 12.7756 25.3258 12.5526 25.1112C12.3296 24.8965 12.18 24.6171 12.125 24.3125L13.367 25.508ZM26.633 25.508L26.6606 25.7061C26.6608 25.7061 26.661 25.706 26.6612 25.706C27.0094 25.6573 27.3334 25.4997 27.5867 25.2559C27.84 25.0121 28.0097 24.6946 28.0717 24.3486C28.255 23.3487 28.45 21.8657 28.45 20C28.45 18.1313 28.255 16.6513 28.0717 15.6514M26.633 25.508C26.9397 25.4652 27.2249 25.3265 27.448 25.1118C27.6711 24.8971 27.8205 24.6173 27.875 24.3125L26.633 25.508ZM28.0717 15.6514C28.0717 15.6515 28.0718 15.6516 28.0718 15.6517L27.875 15.6875L28.0717 15.6514ZM13.1852 13.2139L13.1853 13.2139C14.7028 12.9912 17.1885 12.7 20 12.7C22.8106 12.7 25.2969 12.9919 26.8147 13.2131C27.9928 13.3863 28.9394 14.2725 29.1551 15.4425L29.1551 15.4427C29.3519 16.5046 29.55 18.0598 29.55 20C29.55 21.9399 29.3489 23.4953 29.155 24.5578C28.9391 25.728 27.9924 26.6165 26.8152 26.786L26.8148 26.7861C25.2912 27.0088 22.7965 27.3 20 27.3C17.2035 27.3 14.7096 27.008 13.185 26.7868L13.1849 26.7868C12.0075 26.6165 11.0607 25.7279 10.8449 24.5575C10.651 23.4989 10.45 21.9458 10.45 20C10.45 18.0541 10.6511 16.5018 10.845 15.4424C11.0607 14.2724 12.0072 13.3864 13.1852 13.2139ZM20 27.5C22.8095 27.5 25.3145 27.2075 26.8438 26.984L10.6482 24.5938C10.88 25.8507 11.8963 26.8025 13.1562 26.9847C14.6862 27.2067 17.1905 27.5 20 27.5ZM19.3497 18.1158L19.05 17.9436V18.2892V21.7108V22.0564L19.3497 21.8842L22.3264 20.1734L22.6281 20L22.3264 19.8266L19.3497 18.1158ZM17.95 23.948V16.0528L18.7758 16.5174L18.7769 16.5181L24.0242 19.5165L24.0258 19.5174L24.8532 20.0001L24.0258 20.4834L24.0241 20.4843L18.7769 23.4827L18.7758 23.4834L17.95 23.948Z" fill="black" stroke="white" stroke-width="0.4"/>
</svg>
